<?xml version="1.0" encoding="UTF-8" standalone="no"?>
<svg
   viewBox="27.95 22.49 80 20"
   width="240"
   height="60"
   role="img"
   aria-label="TubeArchiver"
   version="1.1"
   id="svg5"
   sodipodi:docname="logo.svg"
   inkscape:version="1.4.2 (f4327f4, 2025-05-13)"
   xmlns:inkscape="http://www.inkscape.org/namespaces/inkscape"
   xmlns:sodipodi="http://sodipodi.sourceforge.net/DTD/sodipodi-0.dtd"
   xmlns="http://www.w3.org/2000/svg"
   xmlns:svg="http://www.w3.org/2000/svg"
   xmlns:rdf="http://www.w3.org/1999/02/22-rdf-syntax-ns#"
   xmlns:cc="http://creativecommons.org/ns#"
   xmlns:dc="http://purl.org/dc/elements/1.1/">
  <defs
     id="defs5" />
  <sodipodi:namedview
     id="namedview5"
     pagecolor="#ffffff"
     bordercolor="#000000"
     borderopacity="0.25"
     inkscape:showpageshadow="2"
     inkscape:pageopacity="0.0"
     inkscape:pagecheckerboard="0"
     inkscape:deskcolor="#d1d1d1"
     showgrid="true"
     inkscape:zoom="2.6118757"
     inkscape:cx="107.01122"
     inkscape:cy="2.1057664"
     inkscape:window-width="1920"
     inkscape:window-height="991"
     inkscape:window-x="-9"
     inkscape:window-y="-9"
     inkscape:window-maximized="1"
     inkscape:current-layer="svg5">
    <inkscape:grid
       id="grid5"
       units="px"
       originx="0"
       originy="0"
       spacingx="0.33333333"
       spacingy="0.33333333"
       empcolor="#0099e5"
       empopacity="0.30196078"
       color="#0099e5"
       opacity="0.14901961"
       empspacing="5"
       enabled="true"
       visible="true" />
  </sodipodi:namedview>
  <title
     id="title1">TubeArchiver</title>
  <!-- Three stacked chevrons (play-stack icon) -->
  <path
     fill="#ff233d"
     d="m 37.16676,29.581823 v 0.6058 0.6058 l -1.79838,1.1002 -1.79838,-1.1002 v -0.6058 -0.6058 l 1.79838,1.1002 z"
     id="path1" />
  <path
     fill="#ff233d"
     d="m 37.16676,31.581823 v 0.6058 0.6058 l -1.79838,1.1002 -1.79838,-1.1002 v -0.6058 -0.6058 l 1.79838,1.1002 z"
     id="path2" />
  <path
     fill="#ff233d"
     d="m 37.16676,33.581823 v 0.6058 0.6058 l -1.79838,1.1002 -1.79838,-1.1002 v -0.6058 -0.6058 l 1.79838,1.1002 z"
     id="path3" />
  <!-- TUBE pill badge -->
  <path
     fill="#ff233d"
     transform="matrix(1.3112846,0,0,1.1252945,-13.781851,-18.140071)"
     d="m 41.489222,41.002522 a 2,2 0 0 0 -2.000008,1.999928 v 3.981489 a 2,2 0 0 0 2.000008,1.999928 h 14.302713 a 2,2 0 0 0 2.000007,-1.999928 V 43.00245 a 2,2 0 0 0 -2.000007,-1.999928 z m -1.237049,1.777663 h 4.331445 v 1.095713 h -1.612223 v 3.347297 h -1.101876 v -3.347297 h -1.617346 z m 9.081019,0.0064 h 0.939117 v 1.811187 c 0.11218,-0.249401 0.260373,-0.404399 0.444927,-0.465655 0.184555,-0.06564 0.43054,-0.09873 0.738131,-0.09873 0.578994,0 0.975467,0.09428 1.18897,0.282424 0.217124,0.183769 0.325519,0.612472 0.325519,1.286292 0,0.669445 -0.0993,1.106822 -0.298327,1.312467 -0.19541,0.205647 -0.589984,0.3086 -1.183452,0.3086 h -0.141085 c -0.293115,0 -0.520904,-0.03721 -0.683746,-0.111592 -0.162843,-0.07875 -0.293233,-0.25567 -0.390937,-0.531324 v 0.642916 h -0.939117 z m 6.264063,1.240369 c 0.267783,0 0.490271,0.01735 0.667588,0.05235 0.177317,0.035 0.329308,0.116045 0.455962,0.242931 0.126656,0.126887 0.210047,0.284397 0.249854,0.472543 0.04342,0.188144 0.06503,0.402725 0.06503,0.643375 0,0.0525 -0.0018,0.111626 -0.0055,0.177261 v 0.223184 h -2.486314 c 0,0.24065 0.03639,0.410943 0.108768,0.511578 0.07237,0.09626 0.206168,0.144656 0.401578,0.144656 l 0.532022,0.01286 c 0.119418,0 0.219108,-0.0087 0.29872,-0.02618 0.07961,-0.01751 0.131911,-0.04809 0.157242,-0.09184 0.02895,-0.04376 0.04715,-0.122282 0.05439,-0.236042 h 0.933599 c 0,0.459423 -0.123189,0.75253 -0.369262,0.879418 -0.242453,0.126887 -0.589636,0.190119 -1.041975,0.190119 l -0.906407,-0.03949 c -0.434245,0 -0.731026,-0.133083 -0.890249,-0.399986 -0.155605,-0.266903 -0.233302,-0.682824 -0.233302,-1.247257 0,-0.516304 0.083,-0.892503 0.249459,-1.128777 0.16646,-0.24065 0.456041,-0.360952 0.868575,-0.360952 z m -10.498168,0.06567 h 0.939117 v 1.60132 c 0,0.293155 0.0599,0.481256 0.179311,0.564389 0.119418,0.07875 0.313104,0.118021 0.580889,0.118021 0.293116,0 0.504605,-0.05661 0.634879,-0.170373 0.133893,-0.118138 0.200986,-0.343446 0.200986,-0.675981 v -0.09184 -1.345531 h 0.939117 v 3.130542 h -0.939117 v -0.695727 c -0.05791,0.275653 -0.193591,0.461699 -0.407095,0.557959 -0.209885,0.09188 -0.459669,0.137768 -0.749165,0.137768 -0.470433,0 -0.818008,-0.09839 -1.042369,-0.295282 -0.22436,-0.201271 -0.336553,-0.57747 -0.336553,-1.128777 z m 10.074521,0.61674 c -0.19903,0 -0.354423,0.02648 -0.466603,0.07899 -0.112182,0.04813 -0.168277,0.172538 -0.168277,0.37381 l 0.0055,0.08542 h 1.557838 c 0,-0.223148 -0.04509,-0.367418 -0.135567,-0.43305 -0.09047,-0.07001 -0.237157,-0.105163 -0.439805,-0.105163 z m -4.016567,0.164403 c -0.09047,0 -0.177264,0.002 -0.260494,0.0064 -0.08323,0 -0.186325,0.0153 -0.30936,0.04592 -0.123036,0.03062 -0.208328,0.09842 -0.255371,0.203438 -0.04342,0.10501 -0.06503,0.260466 -0.06503,0.466114 0,0.323783 0.05609,0.535852 0.168277,0.636487 0.11218,0.100635 0.307766,0.151085 0.586406,0.151085 h 0.157242 c 0.162843,0 0.305734,-0.0087 0.42877,-0.02618 0.123036,-0.02188 0.213628,-0.06366 0.271528,-0.124909 0.06152,-0.06125 0.09942,-0.137728 0.113892,-0.229613 0.01809,-0.09188 0.02719,-0.192784 0.02719,-0.302171 0,-0.363163 -0.0436,-0.590525 -0.130443,-0.682409 -0.08323,-0.09626 -0.291318,-0.144197 -0.624239,-0.144197 z"
     id="path4" />
  <!-- "Archiver" wordmark (rendered as paths from Inkscape export) -->
  <path
     fill="#ff233d"
     d="M 64.317533,35.000002 H 62.73085 L 65.342558,30 h 1.923676 l 2.555541,5.000002 H 68.249134 L 67.806829,34.032489 H 64.7809 Z m 0.961838,-1.986714 h 2.007925 l -1.003962,-1.949775 z m 6.459057,-0.849334 c 0.08893,-0.29542 0.241045,-0.494829 0.456347,-0.598226 0.219983,-0.108321 0.496131,-0.162481 0.828444,-0.162481 0.505492,0 0.854187,0.09355 1.046087,0.280649 0.1919,0.187099 0.28785,0.541605 0.28785,1.063513 v 0.221566 h -1.130335 c -0.0047,-0.01477 -0.0071,-0.04185 -0.0071,-0.08124 -0.01873,-0.231412 -0.07723,-0.376661 -0.175518,-0.435745 -0.09361,-0.06401 -0.269128,-0.09601 -0.526554,-0.09601 -0.29487,0 -0.498471,0.0837 -0.610802,0.251107 -0.112332,0.162481 -0.168498,0.411126 -0.168498,0.745936 v 1.646982 h -1.214584 v -3.522901 h 1.214584 z m 7.463027,2.466761 c -0.182539,0.157557 -0.442305,0.258493 -0.7793,0.302806 -0.332314,0.04432 -0.695051,0.06647 -1.088211,0.06647 -0.561657,0 -0.996942,-0.03447 -1.305854,-0.103396 -0.308911,-0.06893 -0.554637,-0.233875 -0.737175,-0.49483 -0.182538,-0.265878 -0.273808,-0.679467 -0.273808,-1.240766 0,-0.566222 0.10063,-0.979811 0.30189,-1.240766 0.205941,-0.260955 0.568679,-0.41605 1.088212,-0.465287 l 1.151398,-0.0517 c 0.69271,0 1.198202,0.07878 1.516474,0.236336 0.318273,0.157557 0.477409,0.553913 0.477409,1.189068 h -1.221605 c -0.01404,-0.08863 -0.03042,-0.157558 -0.04914,-0.206795 -0.01873,-0.05416 -0.05617,-0.103397 -0.112331,-0.147711 -0.05616,-0.04431 -0.149772,-0.07385 -0.280829,-0.08862 -0.126373,-0.0197 -0.262107,-0.02954 -0.407202,-0.02954 h -0.196579 c -0.196581,0 -0.365078,0.0099 -0.505492,0.02954 -0.135734,0.0197 -0.243385,0.06155 -0.322953,0.125554 -0.07957,0.06401 -0.135734,0.145249 -0.168497,0.243722 -0.02809,0.09848 -0.04213,0.243722 -0.04213,0.435745 0,0.384047 0.08191,0.622845 0.245726,0.716395 0.163817,0.09355 0.451666,0.140325 0.863547,0.140325 0.266788,0 0.468049,-0.01477 0.603782,-0.04432 0.140415,-0.02954 0.234024,-0.0714 0.280829,-0.125554 0.04681,-0.05908 0.07489,-0.113241 0.08425,-0.162481 0.01404,-0.04924 0.02106,-0.115709 0.02106,-0.199409 h 1.235646 c 0,0.265878 -0.0234,0.484982 -0.07021,0.657311 -0.04681,0.167405 -0.149777,0.32004 -0.308911,0.457902 z m 3.87544,-3.227468 c 0.627184,0 1.095232,0.108321 1.404143,0.324962 0.308911,0.216642 0.463367,0.640078 0.463367,1.270308 v 2.001485 h -1.214584 v -1.79469 c 0,-0.344658 -0.04447,-0.571147 -0.133394,-0.679468 -0.08425,-0.113245 -0.339334,-0.169866 -0.765258,-0.169866 h -0.07723 c -0.383799,0 -0.657607,0.05416 -0.821424,0.162481 -0.159136,0.108321 -0.238704,0.342195 -0.238704,0.701623 v 0.273264 1.506656 H 80.479227 V 30 h 1.214584 v 2.067943 c 0.121693,-0.285574 0.29019,-0.467749 0.505492,-0.546529 0.219983,-0.07878 0.512512,-0.118167 0.877589,-0.118167 z M 85.92731,30.930574 V 30.465287 30 h 0.607292 0.607292 v 0.465287 0.465287 h -0.607292 z m 0,4.069428 v -3.5229 h 1.214584 v 3.5229 z m 3.524398,0 -1.621785,-3.5229 h 1.36904 l 1.053107,2.474146 1.046087,-2.474146 h 1.362019 l -1.614765,3.5229 z m 6.423951,-7e-6 -1.17246,-0.04431 c -0.561657,0 -0.945457,-0.150172 -1.151397,-0.450516 -0.201261,-0.300344 -0.301891,-0.768093 -0.301891,-1.403247 0,-0.580994 0.107651,-1.00443 0.322953,-1.270308 0.215302,-0.270802 0.58974,-0.406204 1.123314,-0.406204 l 1.151398,-0.02215 c 0.346355,0 0.634206,0.0197 0.863549,0.05909 0.229343,0.03939 0.425923,0.13048 0.589737,0.273264 0.163813,0.142786 0.271467,0.32004 0.322951,0.531758 0.05623,0.211718 0.08429,0.452977 0.08429,0.72378 0,0.05908 -0.0019,0.12555 -0.0068,0.199408 v 0.251108 H 94.48582 c 0,0.270802 0.0468,0.462826 0.140413,0.57607 0.09361,0.108321 0.266788,0.162481 0.519534,0.162481 l 0.68803,0.01477 c 0.154456,0 0.283168,-0.0099 0.386139,-0.02954 0.102971,-0.0197 0.170837,-0.05416 0.203601,-0.103396 0.03744,-0.04924 0.06085,-0.137866 0.07021,-0.265879 h 1.207555 c 0,0.516986 -0.159129,0.846873 -0.477406,0.989659 -0.313587,0.142786 -0.762913,0.21418 -1.347972,0.21418 z m -0.575699,-2.82865 c -0.257425,0 -0.458686,0.02954 -0.603782,0.08863 -0.145094,0.05416 -0.217642,0.194484 -0.217642,0.420974 l 0.0071,0.09601 h 2.014946 c 0,-0.251107 -0.05851,-0.413588 -0.175519,-0.487444 -0.117012,-0.07878 -0.306571,-0.118167 -0.568678,-0.118167 z m 4.500283,-0.0074 c 0.08894,-0.29542 0.241047,-0.494829 0.456347,-0.598226 0.21999,-0.108321 0.49613,-0.162481 0.82845,-0.162481 0.50549,0 0.85419,0.09355 1.04609,0.280649 0.19189,0.1871 0.28785,0.541605 0.28785,1.063514 v 0.221565 h -1.13034 c -0.005,-0.01477 -0.007,-0.04185 -0.007,-0.08124 -0.0187,-0.231412 -0.0772,-0.376661 -0.17553,-0.435745 -0.0936,-0.06401 -0.26912,-0.09601 -0.52655,-0.09601 -0.29487,0 -0.49848,0.0837 -0.610808,0.251107 -0.112328,0.162481 -0.168497,0.411126 -0.168497,0.745936 v 1.646981 h -1.214581 v -3.5229 h 1.214581 z"
     id="path5" />
  <metadata
     id="metadata5">
    <rdf:RDF>
      <cc:Work
         rdf:about="">
        <dc:title>TubeArchiver</dc:title>
      </cc:Work>
    </rdf:RDF>
  </metadata>
</svg>
